<?xml version="1.0" encoding="UTF-8"?>
<svg xmlns="http://www.w3.org/2000/svg" xmlns:xlink="http://www.w3.org/1999/xlink" width="101.212598pt" height="242.944882pt" viewBox="0 0 101.212598 242.944882" version="1.1">
<g id="surface1">
<path style="fill:none;stroke-width:0.01;stroke-linecap:round;stroke-linejoin:round;stroke:rgb(0%,0%,0%);stroke-opacity:1;stroke-miterlimit:10;" d="M 0.000000000000000007 0.499937 L 1.999947 0.499937 " transform="matrix(28.346457,0,0,-28.346457,1,241.944882)"/>
<path style="fill:none;stroke-width:0.01;stroke-linecap:round;stroke-linejoin:round;stroke:rgb(100%,0%,0%);stroke-opacity:1;stroke-miterlimit:10;" d="M 0.000000000000000007 1.000027 L 1.999947 1.000027 " transform="matrix(28.346457,0,0,-28.346457,1,241.944882)"/>
<path style="fill:none;stroke-width:0.01;stroke-linecap:round;stroke-linejoin:round;stroke:rgb(0%,0%,100%);stroke-opacity:1;stroke-miterlimit:10;" d="M 0.000000000000000007 1.499979 L 1.999947 1.499979 " transform="matrix(28.346457,0,0,-28.346457,1,241.944882)"/>
<path style="fill:none;stroke-width:0.01;stroke-linecap:round;stroke-linejoin:round;stroke:rgb(20%,40%,60%);stroke-opacity:1;stroke-miterlimit:10;" d="M 0.000000000000000007 1.999932 L 1.999947 1.999932 " transform="matrix(28.346457,0,0,-28.346457,1,241.944882)"/>
<path style="fill:none;stroke-width:0.01;stroke-linecap:round;stroke-linejoin:round;stroke:rgb(0%,100%,100%);stroke-opacity:1;stroke-miterlimit:10;" d="M 0.000000000000000007 2.500022 L 1.999947 2.500022 " transform="matrix(28.346457,0,0,-28.346457,1,241.944882)"/>
<path style="fill:none;stroke-width:0.01;stroke-linecap:round;stroke-linejoin:round;stroke:rgb(0%,100%,0%);stroke-opacity:1;stroke-miterlimit:10;" d="M 0.000000000000000007 2.999974 L 1.999947 2.999974 " transform="matrix(28.346457,0,0,-28.346457,1,241.944882)"/>
<path style="fill:none;stroke-width:0.01;stroke-linecap:round;stroke-linejoin:round;stroke:rgb(0%,60%,20%);stroke-opacity:1;stroke-miterlimit:10;" d="M 0.000000000000000007 3.500064 L 1.999947 3.500064 " transform="matrix(28.346457,0,0,-28.346457,1,241.944882)"/>
<path style="fill:none;stroke-width:0.01;stroke-linecap:round;stroke-linejoin:round;stroke:rgb(0%,40%,20%);stroke-opacity:1;stroke-miterlimit:10;" d="M 0.000000000000000007 4.000016 L 1.999947 4.000016 " transform="matrix(28.346457,0,0,-28.346457,1,241.944882)"/>
<path style="fill:none;stroke-width:0.01;stroke-linecap:round;stroke-linejoin:round;stroke:rgb(60%,60%,20%);stroke-opacity:1;stroke-miterlimit:10;" d="M 0.000000000000000007 4.499969 L 1.999947 4.499969 " transform="matrix(28.346457,0,0,-28.346457,1,241.944882)"/>
<path style="fill:none;stroke-width:0.01;stroke-linecap:round;stroke-linejoin:round;stroke:rgb(60%,40%,20%);stroke-opacity:1;stroke-miterlimit:10;" d="M 0.000000000000000007 5.000059 L 1.999947 5.000059 " transform="matrix(28.346457,0,0,-28.346457,1,241.944882)"/>
<path style="fill:none;stroke-width:0.01;stroke-linecap:round;stroke-linejoin:round;stroke:rgb(40%,20%,0%);stroke-opacity:1;stroke-miterlimit:10;" d="M 0.000000000000000007 5.500011 L 1.999947 5.500011 " transform="matrix(28.346457,0,0,-28.346457,1,241.944882)"/>
<path style="fill:none;stroke-width:0.01;stroke-linecap:round;stroke-linejoin:round;stroke:rgb(40%,0%,40%);stroke-opacity:1;stroke-miterlimit:10;" d="M 0.000000000000000007 5.999963 L 1.999947 5.999963 " transform="matrix(28.346457,0,0,-28.346457,1,241.944882)"/>
<path style="fill:none;stroke-width:0.01;stroke-linecap:round;stroke-linejoin:round;stroke:rgb(60%,0%,80%);stroke-opacity:1;stroke-miterlimit:10;" d="M 0.000000000000000007 6.500053 L 1.999947 6.500053 " transform="matrix(28.346457,0,0,-28.346457,1,241.944882)"/>
<path style="fill:none;stroke-width:0.01;stroke-linecap:round;stroke-linejoin:round;stroke:rgb(100%,0%,100%);stroke-opacity:1;stroke-miterlimit:10;" d="M 0.000000000000000007 7.000005 L 1.999947 7.000005 " transform="matrix(28.346457,0,0,-28.346457,1,241.944882)"/>
<path style="fill:none;stroke-width:0.01;stroke-linecap:round;stroke-linejoin:round;stroke:rgb(100%,40%,0%);stroke-opacity:1;stroke-miterlimit:10;" d="M 0.000000000000000007 7.499958 L 1.999947 7.499958 " transform="matrix(28.346457,0,0,-28.346457,1,241.944882)"/>
<path style="fill:none;stroke-width:0.01;stroke-linecap:round;stroke-linejoin:round;stroke:rgb(100%,100%,0%);stroke-opacity:1;stroke-miterlimit:10;" d="M 0.000000000000000007 8.000048 L 1.999947 8.000048 " transform="matrix(28.346457,0,0,-28.346457,1,241.944882)"/>
</g>
</svg>
